<svg width="162" height="23" viewBox="0 0 162 23" fill="none" xmlns="http://www.w3.org/2000/svg">
<path d="M7.00535 4.48165H8.98128V14.0915C8.98128 14.2165 9.07754 14.3187 9.19519 14.3187H10.7995C10.9171 14.3187 11.0134 14.2165 11.0134 14.0915V4.48165H12.9947C13.1738 4.48165 13.2727 4.26292 13.1631 4.1152L10.1684 0.0871928C10.1484 0.0600313 10.1229 0.0380648 10.0937 0.0229579C10.0645 0.00785099 10.0325 0 10 0C9.96754 0 9.9355 0.00785099 9.90631 0.0229579C9.87712 0.0380648 9.85156 0.0600313 9.83155 0.0871928L6.8369 4.11236C6.72727 4.26292 6.8262 4.48165 7.00535 4.48165ZM19.7861 13.2393H18.1818C18.0642 13.2393 17.9679 13.3416 17.9679 13.4666V17.8411H2.03209V13.4666C2.03209 13.3416 1.93583 13.2393 1.81818 13.2393H0.213904C0.0962567 13.2393 0 13.3416 0 13.4666V19.091C0 19.5938 0.382353 20 0.855615 20H19.1444C19.6176 20 20 19.5938 20 19.091V13.4666C20 13.3416 19.9037 13.2393 19.7861 13.2393Z" fill="white"/>
<path d="M45.6055 16.7109C46.0352 16.7109 46.4323 16.623 46.7969 16.4473C47.1615 16.2715 47.4609 16.0306 47.6953 15.7246C47.9297 15.4121 48.0632 15.0573 48.0957 14.6602H49.8145C49.7819 15.2852 49.5703 15.8678 49.1797 16.4082C48.7956 16.9421 48.291 17.375 47.666 17.707C47.041 18.0326 46.3542 18.1953 45.6055 18.1953C44.8112 18.1953 44.1178 18.0553 43.5254 17.7754C42.9395 17.4954 42.4512 17.1113 42.0605 16.623C41.6764 16.1348 41.3867 15.5749 41.1914 14.9434C41.0026 14.3053 40.9082 13.6315 40.9082 12.9219V12.5117C40.9082 11.8021 41.0026 11.1315 41.1914 10.5C41.3867 9.86198 41.6764 9.29883 42.0605 8.81055C42.4512 8.32227 42.9395 7.93815 43.5254 7.6582C44.1178 7.37826 44.8112 7.23828 45.6055 7.23828C46.4323 7.23828 47.1549 7.40755 47.7734 7.74609C48.3919 8.07812 48.877 8.53385 49.2285 9.11328C49.5866 9.6862 49.7819 10.3372 49.8145 11.0664H48.0957C48.0632 10.6302 47.9395 10.2363 47.7246 9.88477C47.5163 9.5332 47.2298 9.25326 46.8652 9.04492C46.5072 8.83008 46.0872 8.72266 45.6055 8.72266C45.0521 8.72266 44.5866 8.83333 44.209 9.05469C43.8379 9.26953 43.5417 9.5625 43.3203 9.93359C43.1055 10.2982 42.9492 10.7051 42.8516 11.1543C42.7604 11.597 42.7148 12.0495 42.7148 12.5117V12.9219C42.7148 13.3841 42.7604 13.8398 42.8516 14.2891C42.9427 14.7383 43.0957 15.1452 43.3105 15.5098C43.5319 15.8743 43.8281 16.1673 44.1992 16.3887C44.5768 16.6035 45.0456 16.7109 45.6055 16.7109ZM53.6523 3V18H51.8457V3H53.6523ZM53.2227 12.3164L52.4707 12.2871C52.4772 11.5645 52.5846 10.8971 52.793 10.2852C53.0013 9.66667 53.2943 9.12956 53.6719 8.67383C54.0495 8.2181 54.4987 7.86654 55.0195 7.61914C55.5469 7.36523 56.1296 7.23828 56.7676 7.23828C57.2884 7.23828 57.7572 7.3099 58.1738 7.45312C58.5905 7.58984 58.9453 7.8112 59.2383 8.11719C59.5378 8.42318 59.7656 8.82031 59.9219 9.30859C60.0781 9.79036 60.1562 10.3796 60.1562 11.0762V18H58.3398V11.0566C58.3398 10.5033 58.2585 10.0605 58.0957 9.72852C57.9329 9.38997 57.6953 9.14583 57.3828 8.99609C57.0703 8.83984 56.6862 8.76172 56.2305 8.76172C55.7812 8.76172 55.3711 8.85612 55 9.04492C54.6354 9.23372 54.3197 9.49414 54.0527 9.82617C53.7923 10.1582 53.5872 10.5391 53.4375 10.9688C53.2943 11.3919 53.2227 11.8411 53.2227 12.3164ZM69.0918 16.1934V10.7539C69.0918 10.3372 69.0072 9.97591 68.8379 9.66992C68.6751 9.35742 68.4277 9.11654 68.0957 8.94727C67.7637 8.77799 67.3535 8.69336 66.8652 8.69336C66.4095 8.69336 66.0091 8.77148 65.6641 8.92773C65.3255 9.08398 65.0586 9.28906 64.8633 9.54297C64.6745 9.79688 64.5801 10.0703 64.5801 10.3633H62.7734C62.7734 9.98568 62.8711 9.61133 63.0664 9.24023C63.2617 8.86914 63.5417 8.53385 63.9062 8.23438C64.2773 7.92839 64.7201 7.6875 65.2344 7.51172C65.7552 7.32943 66.3346 7.23828 66.9727 7.23828C67.7409 7.23828 68.418 7.36849 69.0039 7.62891C69.5964 7.88932 70.0586 8.2832 70.3906 8.81055C70.7292 9.33138 70.8984 9.98568 70.8984 10.7734V15.6953C70.8984 16.0469 70.9277 16.4212 70.9863 16.8184C71.0514 17.2155 71.1458 17.5573 71.2695 17.8438V18H69.3848C69.2936 17.7917 69.222 17.515 69.1699 17.1699C69.1178 16.8184 69.0918 16.4928 69.0918 16.1934ZM69.4043 11.5938L69.4238 12.8633H67.5977C67.0833 12.8633 66.6243 12.9056 66.2207 12.9902C65.8171 13.0684 65.4785 13.1888 65.2051 13.3516C64.9316 13.5143 64.7233 13.7194 64.5801 13.9668C64.4368 14.2077 64.3652 14.4909 64.3652 14.8164C64.3652 15.1484 64.4401 15.4512 64.5898 15.7246C64.7396 15.998 64.9642 16.2161 65.2637 16.3789C65.5697 16.5352 65.944 16.6133 66.3867 16.6133C66.9401 16.6133 67.4284 16.4961 67.8516 16.2617C68.2747 16.0273 68.61 15.7409 68.8574 15.4023C69.1113 15.0638 69.248 14.735 69.2676 14.416L70.0391 15.2852C69.9935 15.5586 69.8698 15.8613 69.668 16.1934C69.4661 16.5254 69.196 16.8444 68.8574 17.1504C68.5254 17.4499 68.1283 17.7005 67.666 17.9023C67.2103 18.0977 66.696 18.1953 66.123 18.1953C65.4069 18.1953 64.7786 18.0553 64.2383 17.7754C63.7044 17.4954 63.2878 17.1211 62.9883 16.6523C62.6953 16.1771 62.5488 15.6465 62.5488 15.0605C62.5488 14.4941 62.6595 13.9961 62.8809 13.5664C63.1022 13.1302 63.4212 12.7689 63.8379 12.4824C64.2546 12.1895 64.7559 11.9681 65.3418 11.8184C65.9277 11.6686 66.582 11.5938 67.3047 11.5938H69.4043ZM75.5469 9.68945V18H73.7402V7.43359H75.4492L75.5469 9.68945ZM75.1172 12.3164L74.3652 12.2871C74.3717 11.5645 74.4792 10.8971 74.6875 10.2852C74.8958 9.66667 75.1888 9.12956 75.5664 8.67383C75.944 8.2181 76.3932 7.86654 76.9141 7.61914C77.4414 7.36523 78.0241 7.23828 78.6621 7.23828C79.1829 7.23828 79.6517 7.3099 80.0684 7.45312C80.485 7.58984 80.8398 7.8112 81.1328 8.11719C81.4323 8.42318 81.6602 8.82031 81.8164 9.30859C81.9727 9.79036 82.0508 10.3796 82.0508 11.0762V18H80.2344V11.0566C80.2344 10.5033 80.153 10.0605 79.9902 9.72852C79.8275 9.38997 79.5898 9.14583 79.2773 8.99609C78.9648 8.83984 78.5807 8.76172 78.125 8.76172C77.6758 8.76172 77.2656 8.85612 76.8945 9.04492C76.5299 9.23372 76.2142 9.49414 75.9473 9.82617C75.6868 10.1582 75.4818 10.5391 75.332 10.9688C75.1888 11.3919 75.1172 11.8411 75.1172 12.3164ZM91.6406 7.43359H93.2812V17.7754C93.2812 18.7064 93.0924 19.5007 92.7148 20.1582C92.3372 20.8158 91.8099 21.3138 91.1328 21.6523C90.4622 21.9974 89.6875 22.1699 88.8086 22.1699C88.444 22.1699 88.0143 22.1113 87.5195 21.9941C87.0312 21.8835 86.5495 21.6914 86.0742 21.418C85.6055 21.151 85.2116 20.7897 84.8926 20.334L85.8398 19.2598C86.2826 19.7936 86.7448 20.1647 87.2266 20.373C87.7148 20.5814 88.1966 20.6855 88.6719 20.6855C89.2448 20.6855 89.7396 20.5781 90.1562 20.3633C90.5729 20.1484 90.8952 19.8294 91.123 19.4062C91.3574 18.9896 91.4746 18.4753 91.4746 17.8633V9.75781L91.6406 7.43359ZM84.3652 12.834V12.6289C84.3652 11.8216 84.4596 11.0892 84.6484 10.4316C84.8438 9.76758 85.1204 9.19792 85.4785 8.72266C85.8431 8.2474 86.2826 7.88281 86.7969 7.62891C87.3112 7.36849 87.8906 7.23828 88.5352 7.23828C89.1992 7.23828 89.7786 7.35547 90.2734 7.58984C90.7747 7.81771 91.1979 8.15299 91.543 8.5957C91.8945 9.0319 92.1712 9.55924 92.373 10.1777C92.5749 10.7962 92.7148 11.4961 92.793 12.2773V13.1758C92.7214 13.9505 92.5814 14.6471 92.373 15.2656C92.1712 15.8841 91.8945 16.4115 91.543 16.8477C91.1979 17.2839 90.7747 17.6191 90.2734 17.8535C89.7721 18.0814 89.1862 18.1953 88.5156 18.1953C87.8841 18.1953 87.3112 18.0618 86.7969 17.7949C86.2891 17.528 85.8529 17.1536 85.4883 16.6719C85.1237 16.1901 84.8438 15.6237 84.6484 14.9727C84.4596 14.3151 84.3652 13.6022 84.3652 12.834ZM86.1719 12.6289V12.834C86.1719 13.3613 86.224 13.8561 86.3281 14.3184C86.4388 14.7806 86.6048 15.1875 86.8262 15.5391C87.054 15.8906 87.3438 16.1673 87.6953 16.3691C88.0469 16.5645 88.4668 16.6621 88.9551 16.6621C89.554 16.6621 90.0488 16.5352 90.4395 16.2812C90.8301 16.0273 91.1393 15.6921 91.3672 15.2754C91.6016 14.8587 91.7839 14.4062 91.9141 13.918V11.5645C91.8424 11.2064 91.7318 10.8613 91.582 10.5293C91.4388 10.1908 91.25 9.89128 91.0156 9.63086C90.7878 9.36393 90.5046 9.15234 90.166 8.99609C89.8275 8.83984 89.4303 8.76172 88.9746 8.76172C88.4798 8.76172 88.0534 8.86589 87.6953 9.07422C87.3438 9.27604 87.054 9.55599 86.8262 9.91406C86.6048 10.2656 86.4388 10.6758 86.3281 11.1445C86.224 11.6068 86.1719 12.1016 86.1719 12.6289ZM100.41 18.1953C99.6745 18.1953 99.0072 18.0716 98.4082 17.8242C97.8158 17.5703 97.3047 17.2155 96.875 16.7598C96.4518 16.304 96.1263 15.7637 95.8984 15.1387C95.6706 14.5137 95.5566 13.8301 95.5566 13.0879V12.6777C95.5566 11.8184 95.6836 11.0534 95.9375 10.3828C96.1914 9.70573 96.5365 9.13281 96.9727 8.66406C97.4089 8.19531 97.9036 7.84049 98.457 7.59961C99.0104 7.35872 99.5833 7.23828 100.176 7.23828C100.931 7.23828 101.582 7.36849 102.129 7.62891C102.682 7.88932 103.135 8.25391 103.486 8.72266C103.838 9.1849 104.098 9.73177 104.268 10.3633C104.437 10.9883 104.521 11.6719 104.521 12.4141V13.2246H96.6309V11.75H102.715V11.6133C102.689 11.1445 102.591 10.6888 102.422 10.2461C102.259 9.80339 101.999 9.4388 101.641 9.15234C101.283 8.86589 100.794 8.72266 100.176 8.72266C99.7656 8.72266 99.388 8.81055 99.043 8.98633C98.6979 9.1556 98.4017 9.40951 98.1543 9.74805C97.9069 10.0866 97.7148 10.5 97.5781 10.9883C97.4414 11.4766 97.373 12.0397 97.373 12.6777V13.0879C97.373 13.5892 97.4414 14.0612 97.5781 14.5039C97.7214 14.9401 97.9264 15.3242 98.1934 15.6562C98.4668 15.9883 98.7956 16.2487 99.1797 16.4375C99.5703 16.6263 100.013 16.7207 100.508 16.7207C101.146 16.7207 101.686 16.5905 102.129 16.3301C102.572 16.0697 102.959 15.7214 103.291 15.2852L104.385 16.1543C104.157 16.4993 103.867 16.8281 103.516 17.1406C103.164 17.4531 102.731 17.707 102.217 17.9023C101.709 18.0977 101.107 18.1953 100.41 18.1953ZM113.398 9.46484V22.0625H111.582V7.43359H113.242L113.398 9.46484ZM120.518 12.6289V12.834C120.518 13.6022 120.426 14.3151 120.244 14.9727C120.062 15.6237 119.795 16.1901 119.443 16.6719C119.098 17.1536 118.672 17.528 118.164 17.7949C117.656 18.0618 117.074 18.1953 116.416 18.1953C115.745 18.1953 115.153 18.0846 114.639 17.8633C114.124 17.6419 113.688 17.3197 113.33 16.8965C112.972 16.4733 112.686 15.9655 112.471 15.373C112.262 14.7806 112.119 14.1133 112.041 13.3711V12.2773C112.119 11.4961 112.266 10.7962 112.48 10.1777C112.695 9.55924 112.979 9.0319 113.33 8.5957C113.688 8.15299 114.121 7.81771 114.629 7.58984C115.137 7.35547 115.723 7.23828 116.387 7.23828C117.051 7.23828 117.64 7.36849 118.154 7.62891C118.669 7.88281 119.102 8.2474 119.453 8.72266C119.805 9.19792 120.068 9.76758 120.244 10.4316C120.426 11.0892 120.518 11.8216 120.518 12.6289ZM118.701 12.834V12.6289C118.701 12.1016 118.646 11.6068 118.535 11.1445C118.424 10.6758 118.252 10.2656 118.018 9.91406C117.79 9.55599 117.497 9.27604 117.139 9.07422C116.781 8.86589 116.354 8.76172 115.859 8.76172C115.404 8.76172 115.007 8.83984 114.668 8.99609C114.336 9.15234 114.053 9.36393 113.818 9.63086C113.584 9.89128 113.392 10.1908 113.242 10.5293C113.099 10.8613 112.992 11.2064 112.92 11.5645V14.0938C113.05 14.5495 113.232 14.9792 113.467 15.3828C113.701 15.7799 114.014 16.1022 114.404 16.3496C114.795 16.5905 115.286 16.7109 115.879 16.7109C116.367 16.7109 116.787 16.61 117.139 16.4082C117.497 16.1999 117.79 15.9167 118.018 15.5586C118.252 15.2005 118.424 14.7904 118.535 14.3281C118.646 13.8594 118.701 13.3613 118.701 12.834ZM124.629 3V18H122.822V3H124.629ZM124.199 12.3164L123.447 12.2871C123.454 11.5645 123.561 10.8971 123.77 10.2852C123.978 9.66667 124.271 9.12956 124.648 8.67383C125.026 8.2181 125.475 7.86654 125.996 7.61914C126.523 7.36523 127.106 7.23828 127.744 7.23828C128.265 7.23828 128.734 7.3099 129.15 7.45312C129.567 7.58984 129.922 7.8112 130.215 8.11719C130.514 8.42318 130.742 8.82031 130.898 9.30859C131.055 9.79036 131.133 10.3796 131.133 11.0762V18H129.316V11.0566C129.316 10.5033 129.235 10.0605 129.072 9.72852C128.91 9.38997 128.672 9.14583 128.359 8.99609C128.047 8.83984 127.663 8.76172 127.207 8.76172C126.758 8.76172 126.348 8.85612 125.977 9.04492C125.612 9.23372 125.296 9.49414 125.029 9.82617C124.769 10.1582 124.564 10.5391 124.414 10.9688C124.271 11.3919 124.199 11.8411 124.199 12.3164ZM133.359 12.834V12.6094C133.359 11.8477 133.47 11.1413 133.691 10.4902C133.913 9.83268 134.232 9.26302 134.648 8.78125C135.065 8.29297 135.57 7.91536 136.162 7.64844C136.755 7.375 137.419 7.23828 138.154 7.23828C138.896 7.23828 139.564 7.375 140.156 7.64844C140.755 7.91536 141.263 8.29297 141.68 8.78125C142.103 9.26302 142.425 9.83268 142.646 10.4902C142.868 11.1413 142.979 11.8477 142.979 12.6094V12.834C142.979 13.5957 142.868 14.3021 142.646 14.9531C142.425 15.6042 142.103 16.1738 141.68 16.6621C141.263 17.1439 140.758 17.5215 140.166 17.7949C139.58 18.0618 138.916 18.1953 138.174 18.1953C137.432 18.1953 136.764 18.0618 136.172 17.7949C135.579 17.5215 135.072 17.1439 134.648 16.6621C134.232 16.1738 133.913 15.6042 133.691 14.9531C133.47 14.3021 133.359 13.5957 133.359 12.834ZM135.166 12.6094V12.834C135.166 13.3613 135.228 13.8594 135.352 14.3281C135.475 14.7904 135.661 15.2005 135.908 15.5586C136.162 15.9167 136.478 16.1999 136.855 16.4082C137.233 16.61 137.673 16.7109 138.174 16.7109C138.669 16.7109 139.102 16.61 139.473 16.4082C139.85 16.1999 140.163 15.9167 140.41 15.5586C140.658 15.2005 140.843 14.7904 140.967 14.3281C141.097 13.8594 141.162 13.3613 141.162 12.834V12.6094C141.162 12.0885 141.097 11.597 140.967 11.1348C140.843 10.666 140.654 10.2526 140.4 9.89453C140.153 9.52995 139.84 9.24349 139.463 9.03516C139.092 8.82682 138.656 8.72266 138.154 8.72266C137.66 8.72266 137.223 8.82682 136.846 9.03516C136.475 9.24349 136.162 9.52995 135.908 9.89453C135.661 10.2526 135.475 10.666 135.352 11.1348C135.228 11.597 135.166 12.0885 135.166 12.6094ZM149.668 7.43359V8.82031H143.955V7.43359H149.668ZM145.889 4.86523H147.695V15.3828C147.695 15.7409 147.751 16.0111 147.861 16.1934C147.972 16.3757 148.115 16.4961 148.291 16.5547C148.467 16.6133 148.656 16.6426 148.857 16.6426C149.007 16.6426 149.163 16.6296 149.326 16.6035C149.495 16.571 149.622 16.5449 149.707 16.5254L149.717 18C149.574 18.0456 149.385 18.0879 149.15 18.127C148.923 18.1725 148.646 18.1953 148.32 18.1953C147.878 18.1953 147.471 18.1074 147.1 17.9316C146.729 17.7559 146.432 17.4629 146.211 17.0527C145.996 16.6361 145.889 16.0762 145.889 15.373V4.86523ZM151.113 12.834V12.6094C151.113 11.8477 151.224 11.1413 151.445 10.4902C151.667 9.83268 151.986 9.26302 152.402 8.78125C152.819 8.29297 153.324 7.91536 153.916 7.64844C154.508 7.375 155.173 7.23828 155.908 7.23828C156.65 7.23828 157.318 7.375 157.91 7.64844C158.509 7.91536 159.017 8.29297 159.434 8.78125C159.857 9.26302 160.179 9.83268 160.4 10.4902C160.622 11.1413 160.732 11.8477 160.732 12.6094V12.834C160.732 13.5957 160.622 14.3021 160.4 14.9531C160.179 15.6042 159.857 16.1738 159.434 16.6621C159.017 17.1439 158.512 17.5215 157.92 17.7949C157.334 18.0618 156.67 18.1953 155.928 18.1953C155.186 18.1953 154.518 18.0618 153.926 17.7949C153.333 17.5215 152.826 17.1439 152.402 16.6621C151.986 16.1738 151.667 15.6042 151.445 14.9531C151.224 14.3021 151.113 13.5957 151.113 12.834ZM152.92 12.6094V12.834C152.92 13.3613 152.982 13.8594 153.105 14.3281C153.229 14.7904 153.415 15.2005 153.662 15.5586C153.916 15.9167 154.232 16.1999 154.609 16.4082C154.987 16.61 155.426 16.7109 155.928 16.7109C156.423 16.7109 156.855 16.61 157.227 16.4082C157.604 16.1999 157.917 15.9167 158.164 15.5586C158.411 15.2005 158.597 14.7904 158.721 14.3281C158.851 13.8594 158.916 13.3613 158.916 12.834V12.6094C158.916 12.0885 158.851 11.597 158.721 11.1348C158.597 10.666 158.408 10.2526 158.154 9.89453C157.907 9.52995 157.594 9.24349 157.217 9.03516C156.846 8.82682 156.41 8.72266 155.908 8.72266C155.413 8.72266 154.977 8.82682 154.6 9.03516C154.229 9.24349 153.916 9.52995 153.662 9.89453C153.415 10.2526 153.229 10.666 153.105 11.1348C152.982 11.597 152.92 12.0885 152.92 12.6094Z" fill="white"/>
</svg>
