<svg width="57" height="9" viewBox="0 0 57 9" fill="none" xmlns="http://www.w3.org/2000/svg">
<path d="M13.1367 6.02344V2.77344H13.8633V7H13.1719L13.1367 6.02344ZM13.2734 5.13281L13.5742 5.125C13.5742 5.40625 13.5443 5.66667 13.4844 5.90625C13.4271 6.14323 13.3333 6.34896 13.2031 6.52344C13.0729 6.69792 12.9023 6.83464 12.6914 6.93359C12.4805 7.02995 12.224 7.07812 11.9219 7.07812C11.7161 7.07812 11.5273 7.04818 11.3555 6.98828C11.1862 6.92839 11.0404 6.83594 10.918 6.71094C10.7956 6.58594 10.7005 6.42318 10.6328 6.22266C10.5677 6.02214 10.5352 5.78125 10.5352 5.5V2.77344H11.2578V5.50781C11.2578 5.69792 11.2786 5.85547 11.3203 5.98047C11.3646 6.10286 11.4232 6.20052 11.4961 6.27344C11.5716 6.34375 11.6549 6.39323 11.7461 6.42188C11.8398 6.45052 11.9362 6.46484 12.0352 6.46484C12.3424 6.46484 12.5859 6.40625 12.7656 6.28906C12.9453 6.16927 13.0742 6.00911 13.1523 5.80859C13.2331 5.60547 13.2734 5.38021 13.2734 5.13281ZM15.6875 3.58594V8.625H14.9609V2.77344H15.625L15.6875 3.58594ZM18.5352 4.85156V4.93359C18.5352 5.24089 18.4987 5.52604 18.4258 5.78906C18.3529 6.04948 18.2461 6.27604 18.1055 6.46875C17.9674 6.66146 17.7969 6.8112 17.5938 6.91797C17.3906 7.02474 17.1576 7.07812 16.8945 7.07812C16.6263 7.07812 16.3893 7.03385 16.1836 6.94531C15.9779 6.85677 15.8034 6.72786 15.6602 6.55859C15.5169 6.38932 15.4023 6.1862 15.3164 5.94922C15.2331 5.71224 15.1758 5.44531 15.1445 5.14844V4.71094C15.1758 4.39844 15.2344 4.11849 15.3203 3.87109C15.4062 3.6237 15.5195 3.41276 15.6602 3.23828C15.8034 3.0612 15.9766 2.92708 16.1797 2.83594C16.3828 2.74219 16.6172 2.69531 16.8828 2.69531C17.1484 2.69531 17.3841 2.7474 17.5898 2.85156C17.7956 2.95312 17.9688 3.09896 18.1094 3.28906C18.25 3.47917 18.3555 3.70703 18.4258 3.97266C18.4987 4.23568 18.5352 4.52865 18.5352 4.85156ZM17.8086 4.93359V4.85156C17.8086 4.64062 17.7865 4.44271 17.7422 4.25781C17.6979 4.07031 17.6289 3.90625 17.5352 3.76562C17.444 3.6224 17.3268 3.51042 17.1836 3.42969C17.0404 3.34635 16.8698 3.30469 16.6719 3.30469C16.4896 3.30469 16.3307 3.33594 16.1953 3.39844C16.0625 3.46094 15.9492 3.54557 15.8555 3.65234C15.7617 3.75651 15.6849 3.8763 15.625 4.01172C15.5677 4.14453 15.5247 4.28255 15.4961 4.42578V5.4375C15.5482 5.61979 15.6211 5.79167 15.7148 5.95312C15.8086 6.11198 15.9336 6.24089 16.0898 6.33984C16.2461 6.4362 16.4427 6.48438 16.6797 6.48438C16.875 6.48438 17.043 6.44401 17.1836 6.36328C17.3268 6.27995 17.444 6.16667 17.5352 6.02344C17.6289 5.88021 17.6979 5.71615 17.7422 5.53125C17.7865 5.34375 17.8086 5.14453 17.8086 4.93359ZM20.2422 1V7H19.5156V1H20.2422ZM21.2109 4.93359V4.84375C21.2109 4.53906 21.2552 4.25651 21.3438 3.99609C21.4323 3.73307 21.5599 3.50521 21.7266 3.3125C21.8932 3.11719 22.0951 2.96615 22.332 2.85938C22.569 2.75 22.8346 2.69531 23.1289 2.69531C23.4258 2.69531 23.6927 2.75 23.9297 2.85938C24.1693 2.96615 24.3724 3.11719 24.5391 3.3125C24.7083 3.50521 24.8372 3.73307 24.9258 3.99609C25.0143 4.25651 25.0586 4.53906 25.0586 4.84375V4.93359C25.0586 5.23828 25.0143 5.52083 24.9258 5.78125C24.8372 6.04167 24.7083 6.26953 24.5391 6.46484C24.3724 6.65755 24.1706 6.80859 23.9336 6.91797C23.6992 7.02474 23.4336 7.07812 23.1367 7.07812C22.8398 7.07812 22.5729 7.02474 22.3359 6.91797C22.099 6.80859 21.8958 6.65755 21.7266 6.46484C21.5599 6.26953 21.4323 6.04167 21.3438 5.78125C21.2552 5.52083 21.2109 5.23828 21.2109 4.93359ZM21.9336 4.84375V4.93359C21.9336 5.14453 21.9583 5.34375 22.0078 5.53125C22.0573 5.71615 22.1315 5.88021 22.2305 6.02344C22.332 6.16667 22.4583 6.27995 22.6094 6.36328C22.7604 6.44401 22.9362 6.48438 23.1367 6.48438C23.3346 6.48438 23.5078 6.44401 23.6562 6.36328C23.8073 6.27995 23.9323 6.16667 24.0312 6.02344C24.1302 5.88021 24.2044 5.71615 24.2539 5.53125C24.306 5.34375 24.332 5.14453 24.332 4.93359V4.84375C24.332 4.63542 24.306 4.4388 24.2539 4.25391C24.2044 4.06641 24.1289 3.90104 24.0273 3.75781C23.9284 3.61198 23.8034 3.4974 23.6523 3.41406C23.5039 3.33073 23.3294 3.28906 23.1289 3.28906C22.931 3.28906 22.7565 3.33073 22.6055 3.41406C22.457 3.4974 22.332 3.61198 22.2305 3.75781C22.1315 3.90104 22.0573 4.06641 22.0078 4.25391C21.9583 4.4388 21.9336 4.63542 21.9336 4.84375ZM28.457 6.27734V4.10156C28.457 3.9349 28.4232 3.79036 28.3555 3.66797C28.2904 3.54297 28.1914 3.44661 28.0586 3.37891C27.9258 3.3112 27.7617 3.27734 27.5664 3.27734C27.3841 3.27734 27.224 3.30859 27.0859 3.37109C26.9505 3.43359 26.8438 3.51562 26.7656 3.61719C26.6901 3.71875 26.6523 3.82812 26.6523 3.94531H25.9297C25.9297 3.79427 25.9688 3.64453 26.0469 3.49609C26.125 3.34766 26.237 3.21354 26.3828 3.09375C26.5312 2.97135 26.7083 2.875 26.9141 2.80469C27.1224 2.73177 27.3542 2.69531 27.6094 2.69531C27.9167 2.69531 28.1875 2.7474 28.4219 2.85156C28.6589 2.95573 28.8438 3.11328 28.9766 3.32422C29.112 3.53255 29.1797 3.79427 29.1797 4.10938V6.07812C29.1797 6.21875 29.1914 6.36849 29.2148 6.52734C29.2409 6.6862 29.2786 6.82292 29.3281 6.9375V7H28.5742C28.5378 6.91667 28.5091 6.80599 28.4883 6.66797C28.4674 6.52734 28.457 6.39714 28.457 6.27734ZM28.582 4.4375L28.5898 4.94531H27.8594C27.6536 4.94531 27.4701 4.96224 27.3086 4.99609C27.1471 5.02734 27.0117 5.07552 26.9023 5.14062C26.793 5.20573 26.7096 5.28776 26.6523 5.38672C26.5951 5.48307 26.5664 5.59635 26.5664 5.72656C26.5664 5.85938 26.5964 5.98047 26.6562 6.08984C26.7161 6.19922 26.806 6.28646 26.9258 6.35156C27.0482 6.41406 27.1979 6.44531 27.375 6.44531C27.5964 6.44531 27.7917 6.39844 27.9609 6.30469C28.1302 6.21094 28.2643 6.09635 28.3633 5.96094C28.4648 5.82552 28.5195 5.69401 28.5273 5.56641L28.8359 5.91406C28.8177 6.02344 28.7682 6.14453 28.6875 6.27734C28.6068 6.41016 28.4987 6.53776 28.3633 6.66016C28.2305 6.77995 28.0716 6.88021 27.8867 6.96094C27.7044 7.03906 27.4987 7.07812 27.2695 7.07812C26.9831 7.07812 26.7318 7.02214 26.5156 6.91016C26.3021 6.79818 26.1354 6.64844 26.0156 6.46094C25.8984 6.27083 25.8398 6.05859 25.8398 5.82422C25.8398 5.59766 25.8841 5.39844 25.9727 5.22656C26.0612 5.05208 26.1888 4.90755 26.3555 4.79297C26.5221 4.67578 26.7227 4.58724 26.957 4.52734C27.1914 4.46745 27.4531 4.4375 27.7422 4.4375H28.582ZM32.9805 6.17969V1H33.707V7H33.043L32.9805 6.17969ZM30.1367 4.93359V4.85156C30.1367 4.52865 30.1758 4.23568 30.2539 3.97266C30.3346 3.70703 30.4479 3.47917 30.5938 3.28906C30.7422 3.09896 30.918 2.95312 31.1211 2.85156C31.3268 2.7474 31.556 2.69531 31.8086 2.69531C32.0742 2.69531 32.306 2.74219 32.5039 2.83594C32.7044 2.92708 32.8737 3.0612 33.0117 3.23828C33.1523 3.41276 33.263 3.6237 33.3438 3.87109C33.4245 4.11849 33.4805 4.39844 33.5117 4.71094V5.07031C33.4831 5.38021 33.4271 5.65885 33.3438 5.90625C33.263 6.15365 33.1523 6.36458 33.0117 6.53906C32.8737 6.71354 32.7044 6.84766 32.5039 6.94141C32.3034 7.03255 32.069 7.07812 31.8008 7.07812C31.5534 7.07812 31.3268 7.02474 31.1211 6.91797C30.918 6.8112 30.7422 6.66146 30.5938 6.46875C30.4479 6.27604 30.3346 6.04948 30.2539 5.78906C30.1758 5.52604 30.1367 5.24089 30.1367 4.93359ZM30.8633 4.85156V4.93359C30.8633 5.14453 30.8841 5.34245 30.9258 5.52734C30.9701 5.71224 31.0378 5.875 31.1289 6.01562C31.2201 6.15625 31.3359 6.26693 31.4766 6.34766C31.6172 6.42578 31.7852 6.46484 31.9805 6.46484C32.2201 6.46484 32.4167 6.41406 32.5703 6.3125C32.7266 6.21094 32.8516 6.07682 32.9453 5.91016C33.0391 5.74349 33.112 5.5625 33.1641 5.36719V4.42578C33.1328 4.28255 33.0872 4.14453 33.0273 4.01172C32.9701 3.8763 32.8945 3.75651 32.8008 3.65234C32.7096 3.54557 32.5964 3.46094 32.4609 3.39844C32.3281 3.33594 32.1706 3.30469 31.9883 3.30469C31.7904 3.30469 31.6198 3.34635 31.4766 3.42969C31.3359 3.51042 31.2201 3.6224 31.1289 3.76562C31.0378 3.90625 30.9701 4.07031 30.9258 4.25781C30.8841 4.44271 30.8633 4.64062 30.8633 4.85156ZM37.5391 3.58594V8.625H36.8125V2.77344H37.4766L37.5391 3.58594ZM40.3867 4.85156V4.93359C40.3867 5.24089 40.3503 5.52604 40.2773 5.78906C40.2044 6.04948 40.0977 6.27604 39.957 6.46875C39.819 6.66146 39.6484 6.8112 39.4453 6.91797C39.2422 7.02474 39.0091 7.07812 38.7461 7.07812C38.4779 7.07812 38.2409 7.03385 38.0352 6.94531C37.8294 6.85677 37.6549 6.72786 37.5117 6.55859C37.3685 6.38932 37.2539 6.1862 37.168 5.94922C37.0846 5.71224 37.0273 5.44531 36.9961 5.14844V4.71094C37.0273 4.39844 37.0859 4.11849 37.1719 3.87109C37.2578 3.6237 37.3711 3.41276 37.5117 3.23828C37.6549 3.0612 37.8281 2.92708 38.0312 2.83594C38.2344 2.74219 38.4688 2.69531 38.7344 2.69531C39 2.69531 39.2357 2.7474 39.4414 2.85156C39.6471 2.95312 39.8203 3.09896 39.9609 3.28906C40.1016 3.47917 40.207 3.70703 40.2773 3.97266C40.3503 4.23568 40.3867 4.52865 40.3867 4.85156ZM39.6602 4.93359V4.85156C39.6602 4.64062 39.638 4.44271 39.5938 4.25781C39.5495 4.07031 39.4805 3.90625 39.3867 3.76562C39.2956 3.6224 39.1784 3.51042 39.0352 3.42969C38.8919 3.34635 38.7214 3.30469 38.5234 3.30469C38.3411 3.30469 38.1823 3.33594 38.0469 3.39844C37.9141 3.46094 37.8008 3.54557 37.707 3.65234C37.6133 3.75651 37.5365 3.8763 37.4766 4.01172C37.4193 4.14453 37.3763 4.28255 37.3477 4.42578V5.4375C37.3997 5.61979 37.4727 5.79167 37.5664 5.95312C37.6602 6.11198 37.7852 6.24089 37.9414 6.33984C38.0977 6.4362 38.2943 6.48438 38.5312 6.48438C38.7266 6.48438 38.8945 6.44401 39.0352 6.36328C39.1784 6.27995 39.2956 6.16667 39.3867 6.02344C39.4805 5.88021 39.5495 5.71615 39.5938 5.53125C39.638 5.34375 39.6602 5.14453 39.6602 4.93359ZM42.0312 1V7H41.3086V1H42.0312ZM41.8594 4.72656L41.5586 4.71484C41.5612 4.42578 41.6042 4.15885 41.6875 3.91406C41.7708 3.66667 41.888 3.45182 42.0391 3.26953C42.1901 3.08724 42.3698 2.94661 42.5781 2.84766C42.7891 2.74609 43.0221 2.69531 43.2773 2.69531C43.4857 2.69531 43.6732 2.72396 43.8398 2.78125C44.0065 2.83594 44.1484 2.92448 44.2656 3.04688C44.3854 3.16927 44.4766 3.32812 44.5391 3.52344C44.6016 3.71615 44.6328 3.95182 44.6328 4.23047V7H43.9062V4.22266C43.9062 4.0013 43.8737 3.82422 43.8086 3.69141C43.7435 3.55599 43.6484 3.45833 43.5234 3.39844C43.3984 3.33594 43.2448 3.30469 43.0625 3.30469C42.8828 3.30469 42.7188 3.34245 42.5703 3.41797C42.4245 3.49349 42.2982 3.59766 42.1914 3.73047C42.0872 3.86328 42.0052 4.01562 41.9453 4.1875C41.888 4.35677 41.8594 4.53646 41.8594 4.72656ZM45.5234 4.93359V4.84375C45.5234 4.53906 45.5677 4.25651 45.6562 3.99609C45.7448 3.73307 45.8724 3.50521 46.0391 3.3125C46.2057 3.11719 46.4076 2.96615 46.6445 2.85938C46.8815 2.75 47.1471 2.69531 47.4414 2.69531C47.7383 2.69531 48.0052 2.75 48.2422 2.85938C48.4818 2.96615 48.6849 3.11719 48.8516 3.3125C49.0208 3.50521 49.1497 3.73307 49.2383 3.99609C49.3268 4.25651 49.3711 4.53906 49.3711 4.84375V4.93359C49.3711 5.23828 49.3268 5.52083 49.2383 5.78125C49.1497 6.04167 49.0208 6.26953 48.8516 6.46484C48.6849 6.65755 48.4831 6.80859 48.2461 6.91797C48.0117 7.02474 47.7461 7.07812 47.4492 7.07812C47.1523 7.07812 46.8854 7.02474 46.6484 6.91797C46.4115 6.80859 46.2083 6.65755 46.0391 6.46484C45.8724 6.26953 45.7448 6.04167 45.6562 5.78125C45.5677 5.52083 45.5234 5.23828 45.5234 4.93359ZM46.2461 4.84375V4.93359C46.2461 5.14453 46.2708 5.34375 46.3203 5.53125C46.3698 5.71615 46.444 5.88021 46.543 6.02344C46.6445 6.16667 46.7708 6.27995 46.9219 6.36328C47.0729 6.44401 47.2487 6.48438 47.4492 6.48438C47.6471 6.48438 47.8203 6.44401 47.9688 6.36328C48.1198 6.27995 48.2448 6.16667 48.3438 6.02344C48.4427 5.88021 48.5169 5.71615 48.5664 5.53125C48.6185 5.34375 48.6445 5.14453 48.6445 4.93359V4.84375C48.6445 4.63542 48.6185 4.4388 48.5664 4.25391C48.5169 4.06641 48.4414 3.90104 48.3398 3.75781C48.2409 3.61198 48.1159 3.4974 47.9648 3.41406C47.8164 3.33073 47.6419 3.28906 47.4414 3.28906C47.2435 3.28906 47.069 3.33073 46.918 3.41406C46.7695 3.4974 46.6445 3.61198 46.543 3.75781C46.444 3.90104 46.3698 4.06641 46.3203 4.25391C46.2708 4.4388 46.2461 4.63542 46.2461 4.84375ZM52.0469 2.77344V3.32812H49.7617V2.77344H52.0469ZM50.5352 1.74609H51.2578V5.95312C51.2578 6.09635 51.2799 6.20443 51.3242 6.27734C51.3685 6.35026 51.4258 6.39844 51.4961 6.42188C51.5664 6.44531 51.6419 6.45703 51.7227 6.45703C51.7826 6.45703 51.8451 6.45182 51.9102 6.44141C51.9779 6.42839 52.0286 6.41797 52.0625 6.41016L52.0664 7C52.0091 7.01823 51.9336 7.03516 51.8398 7.05078C51.7487 7.06901 51.638 7.07812 51.5078 7.07812C51.3307 7.07812 51.168 7.04297 51.0195 6.97266C50.8711 6.90234 50.7526 6.78516 50.6641 6.62109C50.5781 6.45443 50.5352 6.23047 50.5352 5.94922V1.74609ZM52.625 4.93359V4.84375C52.625 4.53906 52.6693 4.25651 52.7578 3.99609C52.8464 3.73307 52.974 3.50521 53.1406 3.3125C53.3073 3.11719 53.5091 2.96615 53.7461 2.85938C53.9831 2.75 54.2487 2.69531 54.543 2.69531C54.8398 2.69531 55.1068 2.75 55.3438 2.85938C55.5833 2.96615 55.7865 3.11719 55.9531 3.3125C56.1224 3.50521 56.2513 3.73307 56.3398 3.99609C56.4284 4.25651 56.4727 4.53906 56.4727 4.84375V4.93359C56.4727 5.23828 56.4284 5.52083 56.3398 5.78125C56.2513 6.04167 56.1224 6.26953 55.9531 6.46484C55.7865 6.65755 55.5846 6.80859 55.3477 6.91797C55.1133 7.02474 54.8477 7.07812 54.5508 7.07812C54.2539 7.07812 53.987 7.02474 53.75 6.91797C53.513 6.80859 53.3099 6.65755 53.1406 6.46484C52.974 6.26953 52.8464 6.04167 52.7578 5.78125C52.6693 5.52083 52.625 5.23828 52.625 4.93359ZM53.3477 4.84375V4.93359C53.3477 5.14453 53.3724 5.34375 53.4219 5.53125C53.4714 5.71615 53.5456 5.88021 53.6445 6.02344C53.7461 6.16667 53.8724 6.27995 54.0234 6.36328C54.1745 6.44401 54.3503 6.48438 54.5508 6.48438C54.7487 6.48438 54.9219 6.44401 55.0703 6.36328C55.2214 6.27995 55.3464 6.16667 55.4453 6.02344C55.5443 5.88021 55.6185 5.71615 55.668 5.53125C55.7201 5.34375 55.7461 5.14453 55.7461 4.93359V4.84375C55.7461 4.63542 55.7201 4.4388 55.668 4.25391C55.6185 4.06641 55.543 3.90104 55.4414 3.75781C55.3424 3.61198 55.2174 3.4974 55.0664 3.41406C54.918 3.33073 54.7435 3.28906 54.543 3.28906C54.3451 3.28906 54.1706 3.33073 54.0195 3.41406C53.8711 3.4974 53.7461 3.61198 53.6445 3.75781C53.5456 3.90104 53.4714 4.06641 53.4219 4.25391C53.3724 4.4388 53.3477 4.63542 53.3477 4.84375Z" fill="white"/>
<path d="M2.45187 2.56858H3.14345V5.93202C3.14345 5.97577 3.17714 6.01156 3.21832 6.01156H3.77981C3.82099 6.01156 3.85468 5.97577 3.85468 5.93202V2.56858H4.54813C4.61083 2.56858 4.64545 2.49202 4.60709 2.44032L3.55896 1.03052C3.55195 1.02101 3.54301 1.01332 3.53279 1.00804C3.52258 1.00275 3.51136 1 3.5 1C3.48864 1 3.47742 1.00275 3.46721 1.00804C3.45699 1.01332 3.44805 1.02101 3.44104 1.03052L2.39291 2.43933C2.35455 2.49202 2.38917 2.56858 2.45187 2.56858ZM6.92513 5.63376H6.36364C6.32246 5.63376 6.28877 5.66955 6.28877 5.71329V7.24439H0.71123V5.71329C0.71123 5.66955 0.67754 5.63376 0.636364 5.63376H0.0748663C0.0336898 5.63376 0 5.66955 0 5.71329V7.68185C0 7.85783 0.133824 8 0.299465 8H6.70053C6.86618 8 7 7.85783 7 7.68185V5.71329C7 5.66955 6.96631 5.63376 6.92513 5.63376Z" fill="white"/>
</svg>
