<svg width="48" height="48" viewBox="0 0 48 48" fill="none" xmlns="http://www.w3.org/2000/svg">
<path d="M9.99994 24V22.5937C9.22329 22.5937 8.59369 23.2233 8.59369 24H9.99994ZM37.9999 24H39.4062C39.4062 23.2233 38.7766 22.5937 37.9999 22.5937V24ZM31.9999 24V25.4062C32.7766 25.4062 33.4062 24.7766 33.4062 24H31.9999ZM15.9999 24H14.5937C14.5937 24.7766 15.2233 25.4062 15.9999 25.4062V24ZM22.5937 38C22.5937 38.7766 23.2233 39.4062 23.9999 39.4062C24.7766 39.4062 25.4062 38.7766 25.4062 38H22.5937ZM9.99994 25.4062H37.9999V22.5937H9.99994V25.4062ZM36.5937 24V39H39.4062V24H36.5937ZM36.5937 39C36.5937 39.8802 35.8801 40.5937 34.9999 40.5937V43.4062C37.4334 43.4062 39.4062 41.4335 39.4062 39H36.5937ZM34.9999 40.5937H12.9999V43.4062H34.9999V40.5937ZM12.9999 40.5937C12.1197 40.5937 11.4062 39.8802 11.4062 39H8.59369C8.59369 41.4335 10.5664 43.4062 12.9999 43.4062V40.5937ZM11.4062 39V24H8.59369V39H11.4062ZM23.9999 7.40625C27.6416 7.40625 30.5937 10.3584 30.5937 14H33.4062C33.4062 8.80507 29.1949 4.59375 23.9999 4.59375V7.40625ZM30.5937 14V24H33.4062V14H30.5937ZM31.9999 22.5937H15.9999V25.4062H31.9999V22.5937ZM17.4062 24V14H14.5937V24H17.4062ZM17.4062 14C17.4062 10.3584 20.3583 7.40625 23.9999 7.40625V4.59375C18.805 4.59375 14.5937 8.80507 14.5937 14H17.4062ZM23.9999 29.4062C24.8801 29.4062 25.5937 30.1198 25.5937 31H28.4062C28.4062 28.5665 26.4334 26.5937 23.9999 26.5937V29.4062ZM25.5937 31C25.5937 31.8802 24.8801 32.5937 23.9999 32.5937V35.4062C26.4334 35.4062 28.4062 33.4335 28.4062 31H25.5937ZM23.9999 32.5937C23.1197 32.5937 22.4062 31.8802 22.4062 31H19.5937C19.5937 33.4335 21.5664 35.4062 23.9999 35.4062V32.5937ZM22.4062 31C22.4062 30.1198 23.1197 29.4062 23.9999 29.4062V26.5937C21.5664 26.5937 19.5937 28.5665 19.5937 31H22.4062ZM22.5937 34V38H25.4062V34H22.5937Z" fill="#FF0000"/>
</svg>
