<svg width="21" height="20" viewBox="0 0 21 20" fill="none" xmlns="http://www.w3.org/2000/svg">
<path d="M17.0456 8.52279C17.0456 13.2298 13.2298 17.0456 8.52278 17.0456C3.81578 17.0456 0 13.2298 0 8.52279C0 3.81578 3.81578 0 8.52278 0C13.2298 0 17.0456 3.81578 17.0456 8.52279ZM1.4177 8.52279C1.4177 12.4468 4.59875 15.6279 8.52278 15.6279C12.4468 15.6279 15.6279 12.4468 15.6279 8.52279C15.6279 4.59875 12.4468 1.4177 8.52278 1.4177C4.59875 1.4177 1.4177 4.59875 1.4177 8.52279Z" fill="#717171"/>
<rect width="8.02075" height="1.42046" transform="matrix(0.707106 0.707107 -0.707106 0.707107 14.4988 13.324)" fill="#717171"/>
</svg>
